<svg width="667" height="290" viewBox="0 0 667 290" fill="none" xmlns="http://www.w3.org/2000/svg">
<path fill-rule="evenodd" clip-rule="evenodd" d="M449.252 2.26958C441.313 6.19958 436.791 13.7816 436.814 23.1226C436.838 32.7406 440.92 39.4516 449.278 43.6166C458.796 48.3596 468.863 46.6846 476.183 39.1386C487.509 27.4636 484.432 9.62558 469.79 2.07758C464.591 -0.601423 454.87 -0.510422 449.252 2.26958ZM566 1.75958C552.936 7.41858 548.299 23.9066 556.375 35.9886C565.938 50.2976 588.336 49.0916 596.153 33.8476C598.682 28.9136 599.503 21.7316 598.122 16.6126C596.757 11.5526 591.005 4.71858 585.932 2.13158C581.221 -0.272422 571.126 -0.46042 566 1.75958ZM633.252 2.26958C624.56 6.57258 620.618 13.9206 621.167 24.7936C621.478 30.9666 621.983 32.6386 624.653 36.3386C626.54 38.9526 629.898 41.7926 633.138 43.5116C637.917 46.0486 639.244 46.3076 645.339 45.8896C653.359 45.3386 658.546 42.3106 663.472 35.3016C666.211 31.4046 666.498 30.2616 666.48 23.3296C666.459 14.9986 665.222 11.6606 660.356 6.79458C653.478 -0.0834198 641.908 -2.01442 633.252 2.26958ZM236.149 7.86158C231.232 10.2846 227.925 15.9026 227.289 22.9126C226.655 29.9026 228.143 33.4966 234.359 39.9946L238.5 44.3236L235 47.3116C233.075 48.9546 227.45 52.3156 222.5 54.7796C212.845 59.5846 213.675 59.8796 227.5 56.5566C245.324 52.2726 256.166 40.8986 257.658 24.9216C258.793 12.7746 254.198 6.14658 244.673 6.18858C241.828 6.20058 237.992 6.95358 236.149 7.86158ZM242 61.8136C221.548 64.8856 207.273 70.5576 195.016 80.4826C178.538 93.8276 170.362 110.161 166.924 136.604C163.918 159.728 171.35 180.178 186.912 191.602C203.75 203.962 227.77 210.169 267.359 212.391L288.218 213.562L287.598 218.114C286.262 227.939 279.367 237.388 270.076 242.127C261.086 246.714 256.617 247.166 220.29 247.166H186L186.015 265.916C186.024 276.229 186.392 285.235 186.833 285.93C188.407 288.409 215.504 290.402 240 289.84C270.76 289.136 285.921 285.93 302.807 276.561C312.146 271.379 325.506 257.777 330.242 248.629C334.445 240.511 338.572 227.075 339.568 218.264L340.258 212.166L382.879 212.151C429.079 212.135 432.906 211.781 443.186 206.572C446.018 205.137 450.662 201.761 453.508 199.07L458.68 194.178L463.07 198.231C468.07 202.847 476.524 207.101 486 209.769C491.973 211.45 498.36 211.625 564.75 211.92L637 212.241V144.703V77.1656H613.619H590.237L589.495 125.666L588.753 174.166L543.626 174.164C493.518 174.163 493.906 174.211 489.416 167.485C487.037 163.921 486.63 157.552 485.359 103.916L484.702 76.1656H458.342H431.983L432.614 119.416L433.244 162.666L430.843 166.151C429.522 168.067 426.654 170.647 424.47 171.884C420.531 174.116 420.176 174.133 378.877 174.15L337.253 174.166L336.515 143.132L335.981 120.693C335.847 115.029 334.501 109.46 332.034 104.36V104.36C321.347 82.2586 299.93 67.7286 270.619 62.6916C262.543 61.3036 248.303 60.8666 242 61.8136ZM61.828 147.086C62.194 229.444 62.248 228.651 55.511 238.83C52.76 242.988 50.772 244.645 45.318 247.33L38.544 250.666L19.272 251.022L0 251.378V269.673V287.969L11.75 288.703C29.354 289.804 50.985 288.712 60.378 286.248C80.208 281.048 93.272 270.758 101.455 253.892C103.918 248.818 106.604 241.741 107.424 238.166C111.816 219.034 112.085 178.249 108.406 89.4156L107.733 73.1656H84.616L61.5 73.1646L61.828 147.086ZM269 106.903C274.662 109.692 281.301 116.083 285.779 123.056L289.241 128.447L288.599 141.556C288.247 148.767 287.684 159.053 287.35 164.416L286.742 174.166H280.977C264.247 174.166 245.102 170.638 234.428 165.589C227.48 162.302 219.739 153.877 218.018 147.729C216.415 142.003 217.149 134.24 219.896 127.875C223.659 119.158 234.682 109.276 244.844 105.511C250.469 103.427 263.463 104.176 269 106.903Z" fill="#E33D00"/>
</svg>
